<?xml version="1.0" standalone="no"?>
<!DOCTYPE svg PUBLIC "-//W3C//DTD SVG 20010904//EN"
 "http://www.w3.org/TR/2001/REC-SVG-20010904/DTD/svg10.dtd">
<svg version="1.0" xmlns="http://www.w3.org/2000/svg"
 width="70.000000pt" height="70.000000pt" viewBox="0 0 70.000000 70.000000"
 preserveAspectRatio="xMidYMid meet">
<metadata>
Created by potrace 1.11, written by Peter Selinger 2001-2013
</metadata>
<g transform="translate(0.000000,70.000000) scale(0.100000,-0.100000)"
fill="#000000" stroke="none">
<path d="M209 598 c-14 -5 -31 -19 -36 -31 -5 -12 -9 -106 -9 -209 1 -249 -19
-230 240 -231 245 0 240 -3 241 130 1 100 -2 120 -19 126 -30 12 -40 -12 -42
-95 -1 -46 -2 -87 -3 -93 -1 -12 -336 -14 -347 -2 -12 12 -11 337 1 347 6 4
86 7 180 6 208 -1 208 -1 82 -124 l-87 -86 -49 48 c-49 49 -83 58 -89 24 -4
-18 120 -148 141 -148 7 0 64 51 125 114 111 112 112 114 106 152 -11 76 -20
79 -227 80 -100 0 -194 -3 -208 -8z"/>
<path d="M80 537 c-30 -15 -40 -61 -15 -71 20 -7 51 8 65 34 7 14 6 23 -6 34
-18 19 -13 19 -44 3z"/>
<path d="M73 395 c-25 -18 -31 -60 -9 -68 26 -10 61 17 61 48 0 35 -20 43 -52
20z"/>
<path d="M72 254 c-12 -8 -22 -26 -22 -40 0 -20 5 -24 30 -24 23 0 33 6 42 24
21 48 -7 71 -50 40z"/>
</g>
</svg>
